<?xml version="1.0" encoding="UTF-8" standalone="no"?>
<svg width="724px" height="168px" viewBox="0 0 724 168" version="1.1" xmlns="http://www.w3.org/2000/svg" xmlns:xlink="http://www.w3.org/1999/xlink" xmlns:sketch="http://www.bohemiancoding.com/sketch/ns">
    <!-- Generator: Sketch 3.3 (11970) - http://www.bohemiancoding.com/sketch -->
    <title>Group</title>
    <desc>Created with Sketch.</desc>
    <defs></defs>
    <g id="Page-1" stroke="none" stroke-width="1" fill="none" fill-rule="evenodd" sketch:type="MSPage">
        <g id="Group" sketch:type="MSLayerGroup">
            <g transform="translate(250.000000, 10.000000)" sketch:type="MSShapeGroup">
                <path d="M69.6,44.5 L69.6,32.3 L89.5,32.3 L89.5,90.7 C89.5,97.8 91.2,100.5 95.6,100.5 C96.8,100.5 98.3,100.3 99.7,100.2 L99.7,116.3 C97.5,117.1 94.2,117.6 89.9,117.6 C85.1,117.6 81.3,116.8 78.3,114.9 C74.6,112.4 72.3,109.1 71.5,104.8 C65.7,113.6 56.1,117.9 42.8,117.9 C31,117.9 21.1,113.8 12.9,105.3 C4.9,96.8 0.9,86.5 0.9,74.1 C0.9,61.7 4.9,51.4 12.9,43.1 C21,34.6 31,30.5 42.8,30.5 C56.4,30.5 66.5,36.5 69.6,44.5 L69.6,44.5 Z M63.7,92.4 C68.7,87.6 71.2,81.4 71.2,74.1 C71.2,66.8 68.7,60.7 63.7,55.8 C58.9,51 52.7,48.5 45.6,48.5 C38.5,48.5 32.7,51 27.8,55.8 C23.2,60.6 20.8,66.8 20.8,74.1 C20.8,81.4 23.1,87.5 27.8,92.4 C32.6,97.2 38.4,99.7 45.6,99.7 C52.7,99.7 58.9,97.2 63.7,92.4 L63.7,92.4 Z M108.5,116 L108.5,0.3 L128.3,0.3 L128.3,67.9 L159.2,32.4 L182,32.4 L149.3,69.8 L185.5,116.1 L162.9,116.1 L136.5,82.4 L128.2,91.7 L128.2,116 L108.5,116 L108.5,116 Z M190.8,116 L190.8,0.3 L210.6,0.3 L210.6,67.9 L241.5,32.4 L264.4,32.4 L231.7,69.8 L267.9,116.1 L245.3,116.1 L218.9,82.4 L210.6,91.7 L210.6,116 L190.8,116 L190.8,116 Z M327.9,44.5 L327.9,32.3 L347.8,32.3 L347.8,90.7 C347.8,97.8 349.5,100.5 353.9,100.5 C355.1,100.5 356.6,100.3 358,100.2 L358,116.3 C355.8,117.1 352.5,117.6 348.2,117.6 C343.4,117.6 339.6,116.8 336.6,114.9 C332.9,112.4 330.6,109.1 329.8,104.8 C324,113.6 314.4,117.9 301.1,117.9 C289.3,117.9 279.4,113.8 271.2,105.3 C263.2,96.8 259.2,86.5 259.2,74.1 C259.2,61.7 263.2,51.4 271.2,43.1 C279.3,34.6 289.3,30.5 301.1,30.5 C314.6,30.5 324.7,36.5 327.9,44.5 L327.9,44.5 Z M321.9,92.4 C326.9,87.6 329.4,81.4 329.4,74.1 C329.4,66.8 326.9,60.7 321.9,55.8 C317.1,51 310.9,48.5 303.8,48.5 C296.7,48.5 290.9,51 286,55.8 C281.4,60.6 279,66.8 279,74.1 C279,81.4 281.3,87.5 286,92.4 C290.8,97.2 296.6,99.7 303.8,99.7 C310.9,99.7 317.1,97.2 321.9,92.4 L321.9,92.4 Z" id="Shape" fill="#40413E"></path>
                <path d="M385.272233,23.6321165 C391.68035,23.6321165 396.938291,18.5384854 396.938291,11.9660583 C396.938291,5.39363107 391.68035,0.3 385.272233,0.3 C378.699806,0.3 373.441864,5.39363107 373.441864,11.9660583 C373.441864,18.5384854 378.699806,23.6321165 385.272233,23.6321165 L385.272233,23.6321165 L385.272233,23.6321165 Z M375.413592,121.23266 C375.413592,129.941126 372.291689,133.39165 364.897709,133.39165 C363.747534,133.39165 361.940117,133.22734 359.475456,133.063029 L359.475456,150.479961 C361.282874,150.808583 364.076155,150.972893 367.69099,150.972893 C385.929476,150.972893 395.130874,141.607184 395.130874,123.040078 L395.130874,33.1621359 L375.413592,33.1621359 L375.413592,121.23266 L375.413592,121.23266 Z M405.811068,101.351068 C411.06901,111.702641 423.392311,118.110757 439.987689,118.110757 C462.498252,118.110757 474,107.101942 474,91.8210485 C474,79.9906796 467.098951,72.596699 451.818058,67.1744466 C448.531845,66.0242718 443.931146,64.381165 441.466485,63.7239223 C439.330447,62.9023689 436.044233,61.5878835 434.729748,60.7663301 C432.429398,59.287534 430.950602,57.8087379 430.950602,55.0154563 C430.950602,50.579068 434.894058,47.6214757 440.973553,47.6214757 C448.038913,47.6214757 453.461165,49.9218252 457.076,54.5225243 L468.084816,42.856466 C461.84101,34.8052427 452.968233,30.6974757 441.302175,30.6974757 C433.086641,30.6974757 426.185592,32.9978252 420.434718,37.4342136 C414.848155,41.8706019 412.054874,47.7857864 412.054874,55.5083883 C412.054874,67.3387573 419.120233,74.0754951 432.429398,78.8405049 C435.22268,79.9906796 440.152,81.4694757 442.61666,82.2910291 C445.08132,83.1125825 448.531845,84.2627573 450.339262,85.412932 C453.132544,86.8917282 455.104272,89.1920777 455.104272,91.9853592 C455.104272,97.0789903 450.667883,101.022447 440.316311,101.022447 C430.293359,101.022447 422.242136,96.5860583 418.46299,90.6708738 L405.811068,101.351068 L405.811068,101.351068 Z" id="js" fill="#F3E061"></path>
            </g>
            <path d="M202,89 C154,75.7 105.7,98.5 57.3,151.7 C57.3,151.7 146.7,119 200.3,161.8 C236.2,190.5 259.2,104.8 202,89 Z" id="Shape" fill="#40413E" sketch:type="MSShapeGroup"></path>
            <path d="M58.1,151 C92.5,115.3 149.7,75.5 203,90.2 C215.4,93.7 224.2,100.9 229.9,109.5 L179.5,7.8 C172.3,-3.7 153.9,-1.3 143.5,7.5 L10.3,119.1 C-1.8,129.5 -2.5,148 8.7,159.2 C18.6,169.1 34.3,170 45.2,161.2 L58.1,151 L58.1,151 Z" id="Shape" fill="#F3E061" sketch:type="MSShapeGroup"></path>
        </g>
    </g>
</svg>